# This file uses centimeters as units for non-parametric coordinates.

mtllib housemiddlecut.mtl
g default
v -639.506893 -1711.288762 1711.288762
v 913.451103 -1711.288762 1711.288762
v -639.506893 1711.288762 1711.288762
v 913.451103 1711.288762 1711.288762
v -639.506893 1711.288762 -1711.288762
v 913.451103 1711.288762 -1711.288762
v -639.506893 -1711.288762 -1711.288762
v 913.451103 -1711.288762 -1711.288762
vt 0.001900 0.668573
vt 0.331205 0.668573
vt 0.331205 0.998008
vt 0.001900 0.998008
vt 0.338523 0.668573
vt 0.667958 0.668573
vt 0.667958 0.998008
vt 0.338523 0.998008
vt 0.338523 0.331471
vt 0.338523 0.001992
vt 0.667827 0.001992
vt 0.667827 0.331471
vt 0.287123 0.335304
vt 0.616558 0.335304
vt 0.616558 0.664739
vt 0.287123 0.664739
vt 0.001900 0.001992
vt 0.331335 0.001992
vt 0.331335 0.331427
vt 0.001900 0.331427
vt 0.622439 0.334956
vt 0.951874 0.334956
vt 0.951874 0.664609
vt 0.622439 0.664609
vn 0.000000 0.000000 1.000000
vn 0.000000 0.000000 1.000000
vn 0.000000 0.000000 1.000000
vn 0.000000 0.000000 1.000000
vn 0.000000 1.000000 0.000000
vn 0.000000 1.000000 0.000000
vn 0.000000 1.000000 0.000000
vn 0.000000 1.000000 0.000000
vn 0.000000 0.000000 -1.000000
vn 0.000000 0.000000 -1.000000
vn 0.000000 0.000000 -1.000000
vn 0.000000 0.000000 -1.000000
vn 0.000000 -1.000000 0.000000
vn 0.000000 -1.000000 0.000000
vn 0.000000 -1.000000 0.000000
vn 0.000000 -1.000000 0.000000
vn 1.000000 0.000000 0.000000
vn 1.000000 0.000000 0.000000
vn 1.000000 0.000000 0.000000
vn 1.000000 0.000000 0.000000
vn -1.000000 0.000000 0.000000
vn -1.000000 0.000000 0.000000
vn -1.000000 0.000000 0.000000
vn -1.000000 0.000000 0.000000
s off
g pCube1
usemtl texturedFacets4
f 1/17/1 2/18/2 4/19/3 3/20/4
f 3/9/5 4/10/6 6/11/7 5/12/8
f 5/21/9 6/22/10 8/23/11 7/24/12
f 7/13/13 8/14/14 2/15/15 1/16/16
f 2/1/17 8/2/18 6/3/19 4/4/20
f 7/5/21 1/6/22 3/7/23 5/8/24
g default
v -3523.232947 -1696.221571 1696.221571
v -1640.257591 -1696.221571 1696.221571
v -3523.232947 1696.221571 1696.221571
v -1640.257591 1696.221571 1696.221571
v -3523.232947 1696.221571 -1696.221571
v -1640.257591 1696.221571 -1696.221571
v -3523.232947 -1696.221571 -1696.221571
v -1640.257591 -1696.221571 -1696.221571
vt 0.625000 0.000000
vt 0.625000 0.250000
vt 0.875000 0.000000
vt 0.875000 0.250000
vt 0.001929 0.668558
vt 0.331379 0.668558
vt 0.331379 0.998008
vt 0.001929 0.998008
vt 0.337782 0.331529
vt 0.337782 0.002036
vt 0.667101 0.002036
vt 0.667101 0.331529
vt 0.279890 0.335362
vt 0.609340 0.335362
vt 0.609340 0.664812
vt 0.279890 0.664812
vt 0.001885 0.001992
vt 0.331335 0.001992
vt 0.331335 0.331442
vt 0.001885 0.331442
vt 0.615133 0.335014
vt 0.944583 0.335014
vt 0.944583 0.664681
vt 0.615133 0.664681
vn 0.000000 0.000000 1.000000
vn 0.000000 0.000000 1.000000
vn 0.000000 0.000000 1.000000
vn 0.000000 0.000000 1.000000
vn 0.000000 1.000000 0.000000
vn 0.000000 1.000000 0.000000
vn 0.000000 1.000000 0.000000
vn 0.000000 1.000000 0.000000
vn 0.000000 0.000000 -1.000000
vn 0.000000 0.000000 -1.000000
vn 0.000000 0.000000 -1.000000
vn 0.000000 0.000000 -1.000000
vn 0.000000 -1.000000 0.000000
vn 0.000000 -1.000000 0.000000
vn 0.000000 -1.000000 0.000000
vn 0.000000 -1.000000 0.000000
vn 1.000000 0.000000 0.000000
vn 1.000000 0.000000 0.000000
vn 1.000000 0.000000 0.000000
vn 1.000000 0.000000 0.000000
vn -1.000000 0.000000 0.000000
vn -1.000000 0.000000 0.000000
vn -1.000000 0.000000 0.000000
vn -1.000000 0.000000 0.000000
s off
g pCube2
usemtl texturedFacets4
f 9/41/25 10/42/26 12/43/27 11/44/28
f 11/33/29 12/34/30 14/35/31 13/36/32
f 13/45/33 14/46/34 16/47/35 15/48/36
f 15/37/37 16/38/38 10/39/39 9/40/40
usemtl initialShadingGroup
f 10/25/41 16/27/42 14/28/43 12/26/44
usemtl texturedFacets4
f 15/29/45 9/30/46 11/31/47 13/32/48
g default
v -2696.520738 -1690.044942 141.377391
v 696.304636 -1690.044942 141.377391
v -2696.520738 1699.229472 141.377391
v 696.304636 1699.229472 141.377391
v -2696.520738 1699.229472 -1617.550597
v 696.304636 1699.229472 -1617.550597
v -2696.520738 -1690.044942 -1617.550597
v 696.304636 -1690.044942 -1617.550597
vt 0.375000 0.000000
vt 0.625000 0.000000
vt 0.375000 0.250000
vt 0.625000 0.250000
vt 0.875000 0.000000
vt 0.875000 0.250000
vt 0.125000 0.000000
vt 0.125000 0.250000
vt 0.469934 0.463171
vt 0.469934 0.001900
vt 0.931206 0.001900
vt 0.931206 0.463171
vt 0.069307 0.467183
vt 0.530626 0.467183
vt 0.530626 0.928501
vt 0.069307 0.928501
vt 0.001992 0.001853
vt 0.463310 0.001853
vt 0.463310 0.463171
vt 0.001992 0.463171
vt 0.536737 0.928361
vt 0.536737 0.467090
vt 0.998008 0.467090
vt 0.998008 0.928361
vn 0.000000 0.000000 1.000000
vn 0.000000 0.000000 1.000000
vn 0.000000 0.000000 1.000000
vn 0.000000 0.000000 1.000000
vn 0.000000 1.000000 0.000000
vn 0.000000 1.000000 0.000000
vn 0.000000 1.000000 0.000000
vn 0.000000 1.000000 0.000000
vn 0.000000 0.000000 -1.000000
vn 0.000000 0.000000 -1.000000
vn 0.000000 0.000000 -1.000000
vn 0.000000 0.000000 -1.000000
vn 0.000000 -1.000000 0.000000
vn 0.000000 -1.000000 0.000000
vn 0.000000 -1.000000 0.000000
vn 0.000000 -1.000000 0.000000
vn 1.000000 0.000000 0.000000
vn 1.000000 0.000000 0.000000
vn 1.000000 0.000000 0.000000
vn 1.000000 0.000000 0.000000
vn -1.000000 0.000000 0.000000
vn -1.000000 0.000000 0.000000
vn -1.000000 0.000000 0.000000
vn -1.000000 0.000000 0.000000
s off
g pCube3
usemtl texturedFacets5
f 17/65/49 18/66/50 20/67/51 19/68/52
f 19/57/53 20/58/54 22/59/55 21/60/56
f 21/69/57 22/70/58 24/71/59 23/72/60
f 23/61/61 24/62/62 18/63/63 17/64/64
usemtl initialShadingGroup
f 18/50/65 24/53/66 22/54/67 20/52/68
f 23/55/69 17/49/70 19/51/71 21/56/72
