# This file uses centimeters as units for non-parametric coordinates.

mtllib ground.mtl
g default
v -51.214460 -0.855486 34.985012
v -51.214460 0.855486 34.985012
v -51.214460 0.855486 -33.821173
v -51.214460 -0.855486 -33.821173
v 51.214460 -0.855486 -33.821173
v 51.214460 0.855486 -33.821173
v -50.119009 0.855486 -33.821173
v -50.119009 0.855486 34.985012
v -50.119009 -0.855486 34.985012
v -50.119009 -0.855486 -33.821173
v -50.119009 -0.855486 -34.985012
v -50.119009 0.855486 -34.985012
v 50.486639 0.855486 -33.821173
v 50.486639 0.855486 34.985012
v 50.486639 -0.855486 34.985012
v 50.486639 -0.855486 -33.821173
v 50.486639 -0.855486 -34.985012
v 50.486639 0.855486 -34.985012
v 50.486639 0.855486 33.560913
v 51.214460 0.855486 33.560913
v 51.214460 -0.855486 33.560913
v 50.486639 -0.855486 33.560913
v -50.119009 -0.855486 33.560913
v -51.214460 -0.855486 33.560913
v -51.214460 0.855486 33.560913
v -50.119009 0.855486 33.560913
v 50.486639 2.604678 33.560913
v 51.214460 2.604678 33.560913
v 51.214460 2.604678 -33.821173
v 50.486639 2.604678 -33.821173
v 50.486639 2.604678 -34.985012
v -51.214460 2.604678 33.560913
v -50.119009 2.604678 33.560913
v -50.119009 2.604678 -33.821173
v -51.214460 2.604678 -33.821173
v -50.119009 2.604678 -34.985012
v 50.486639 2.604678 34.985012
v -51.214460 2.604678 34.985012
v -50.119009 2.604678 34.985012
v 51.214460 -0.855486 34.621135
v 50.850588 -0.855486 34.985012
v 50.850588 0.855486 34.985012
v 51.214460 0.855486 34.621135
v -50.850588 0.855486 -34.985012
v -51.214460 0.855486 -34.621135
v -51.214460 -0.855486 -34.621135
v -50.850588 -0.855486 -34.985012
v 51.214460 0.855486 -34.621135
v 50.850588 0.855486 -34.985012
v 50.850588 -0.855486 -34.985012
v 51.214460 -0.855486 -34.621135
v 50.850588 2.604678 -34.985012
v 51.214460 2.604678 -34.621135
v -51.214460 2.604678 -34.621135
v -50.850588 2.604678 -34.985012
v 51.214460 2.604678 34.621135
v 50.850588 2.604678 34.985012
vt 0.375000 0.000000
vt 0.375000 0.250000
vt 0.375000 1.000000
vt 0.375000 0.495842
vt 0.129158 0.000000
vt 0.625000 0.754158
vt 0.870842 0.250000
vt 0.377674 0.495842
vt 0.377674 0.250000
vt 0.377674 0.000000
vt 0.377674 1.000000
vt 0.377674 0.754158
vt 0.623224 0.495842
vt 0.623224 0.754158
vt 0.623224 0.255088
vt 0.625000 0.255088
vt 0.625000 0.994912
vt 0.630088 0.000000
vt 0.623224 0.994912
vt 0.377674 0.994912
vt 0.369912 0.000000
vt 0.375000 0.994912
vt 0.369912 0.250000
vt 0.375000 0.255088
vt 0.377674 0.255088
vt 0.623224 0.495842
vt 0.623224 0.255088
vt 0.623224 0.500000
vt 0.377674 0.255088
vt 0.377674 0.495842
vt 0.375000 0.255088
vt 0.623224 0.250000
vt 0.375000 0.250000
vt 0.377674 0.250000
vt 0.625000 0.998700
vt 0.624112 1.000000
vt 0.623224 1.000000
vt 0.375000 0.751300
vt 0.375000 0.754158
vt 0.625000 0.751300
vt 0.625000 0.495842
vt 0.377674 0.500000
vt 0.626300 0.000000
vt 0.626300 0.250000
vt 0.624112 0.250000
vt 0.375888 0.500000
vt 0.126300 0.250000
vt 0.125000 0.250000
vt 0.125000 0.000000
vt 0.126301 0.000000
vt 0.625000 0.498700
vt 0.625000 0.498699
vt 0.624112 0.750000
vt 0.623224 0.000000
vt 0.624112 0.000000
vt 0.624112 0.250000
vt 0.623224 0.500000
vt 0.623224 0.750000
vt 0.129158 0.250000
vt 0.870842 0.000000
vt 0.873700 0.000000
vt 0.873700 0.250000
vt 0.375889 0.500000
vt 0.377674 0.750000
vt 0.375888 0.750000
vt 0.630088 0.250000
vt 0.625000 0.495842
vt 0.624112 0.500000
vt 0.624112 0.500000
vt 0.377674 0.500000
vt 0.375000 0.498699
vt 0.375000 0.495842
vt 0.375000 0.498700
vt 0.623224 0.250000
vt 0.625000 0.251300
vt 0.625000 0.255088
vt 0.625000 0.251300
vn 0.000000 1.000000 0.000000
vn 0.000000 1.000000 0.000000
vn 0.000000 1.000000 -0.000000
vn 0.000000 1.000000 -0.000000
vn 0.000000 -1.000000 0.000000
vn 0.000000 -1.000000 0.000000
vn 0.000000 -1.000000 0.000000
vn 0.000000 -1.000000 0.000000
vn 1.000000 0.000000 0.000000
vn 1.000000 0.000000 0.000000
vn 1.000000 0.000000 0.000000
vn 1.000000 0.000000 0.000000
vn -1.000000 0.000000 0.000000
vn -1.000000 0.000000 0.000000
vn -1.000000 0.000000 0.000000
vn -1.000000 0.000000 0.000000
vn 0.000000 -1.000000 0.000000
vn 0.000000 -1.000000 0.000000
vn 0.000000 -1.000000 0.000000
vn 0.000000 1.000000 -0.000000
vn 0.000000 1.000000 -0.000000
vn 0.000000 1.000000 -0.000000
vn 0.000000 1.000000 0.000000
vn 0.000000 1.000000 0.000000
vn 0.000000 1.000000 0.000000
vn 0.000000 1.000000 0.000000
vn 0.000000 0.000000 1.000000
vn 0.000000 0.000000 1.000000
vn 0.000000 0.000000 1.000000
vn 0.000000 0.000000 1.000000
vn 0.000000 -1.000000 0.000000
vn 0.000000 -1.000000 0.000000
vn 0.000000 -1.000000 0.000000
vn 0.000000 -1.000000 0.000000
vn 0.000000 1.000000 0.000000
vn 0.000000 1.000000 0.000000
vn 0.000000 1.000000 0.000000
vn 0.000000 1.000000 0.000000
vn 0.000000 1.000000 0.000000
vn 0.000000 1.000000 0.000000
vn 0.000000 1.000000 0.000000
vn 0.000000 0.000000 1.000000
vn 0.000000 0.000000 1.000000
vn 0.000000 -1.000000 0.000000
vn 0.000000 0.000000 -1.000000
vn 0.000000 0.000000 -1.000000
vn 0.000000 0.000000 -1.000000
vn 0.000000 0.000000 -1.000000
vn 0.000000 1.000000 0.000000
vn 0.000000 1.000000 0.000000
vn 0.000000 1.000000 0.000000
vn 0.000000 -1.000000 0.000000
vn 0.000000 -1.000000 0.000000
vn 0.000000 -1.000000 0.000000
vn 0.000000 -1.000000 0.000000
vn 0.000000 -1.000000 0.000000
vn -1.000000 0.000000 0.000000
vn -1.000000 0.000000 0.000000
vn 0.000000 1.000000 0.000000
vn 0.000000 1.000000 0.000000
vn 1.000000 0.000000 0.000000
vn 1.000000 0.000000 0.000000
vn -1.000000 0.000000 0.000000
vn -1.000000 0.000000 0.000000
vn -1.000000 0.000000 0.000000
vn -1.000000 0.000000 0.000000
vn 1.000000 0.000000 0.000000
vn 1.000000 0.000000 0.000000
vn 1.000000 0.000000 0.000000
vn 1.000000 0.000000 0.000000
vn -1.000000 0.000000 0.000000
vn -1.000000 0.000000 0.000000
vn 0.000000 0.000000 1.000000
vn 0.000000 0.000000 1.000000
vn 0.000000 0.000000 1.000000
vn 0.000000 0.000000 1.000000
vn 0.000000 0.000000 -1.000000
vn 0.000000 0.000000 -1.000000
vn 0.000000 0.000000 1.000000
vn 0.000000 0.000000 1.000000
vn -1.000000 0.000000 0.000000
vn 0.000000 0.000000 1.000000
vn 0.000000 0.000000 -1.000000
vn 0.000000 0.000000 -1.000000
vn 0.000000 0.000000 -1.000000
vn 0.000000 0.000000 -1.000000
vn 0.000000 -1.000000 0.000000
vn 0.000000 -1.000000 0.000000
vn 0.707112 0.000000 0.707102
vn 0.707112 0.000000 0.707102
vn 0.707111 0.000000 0.707103
vn 0.707111 0.000000 0.707103
vn 0.707110 0.000000 0.707104
vn 0.707110 0.000000 0.707104
vn -0.707111 0.000000 -0.707103
vn -0.707111 0.000000 -0.707103
vn -0.707110 0.000000 -0.707104
vn -0.707110 0.000000 -0.707104
vn -0.707112 0.000000 -0.707102
vn -0.707112 0.000000 -0.707102
vn 0.707111 0.000000 -0.707103
vn 0.707111 0.000000 -0.707103
vn 0.707110 0.000000 -0.707104
vn 0.707110 0.000000 -0.707104
vn 0.707112 0.000000 -0.707102
vn 0.707112 0.000000 -0.707102
vn 0.000000 0.000000 1.000000
vn 0.000000 0.000000 1.000000
vn 0.000000 0.000000 -1.000000
vn 0.000000 0.000000 -1.000000
vn -1.000000 0.000000 0.000000
vn -1.000000 0.000000 0.000000
vn 1.000000 0.000000 0.000000
vn 1.000000 0.000000 0.000000
vn 0.000000 0.000000 -1.000000
vn 0.000000 0.000000 -1.000000
vn 1.000000 0.000000 0.000000
vn 1.000000 0.000000 0.000000
vn 1.000000 0.000000 0.000000
vn 0.000000 0.000000 -1.000000
vn 0.000000 0.000000 -1.000000
vn -1.000000 0.000000 0.000000
vn 0.000000 0.000000 1.000000
vn 1.000000 0.000000 0.000000
s 1
g ground
usemtl initialShadingGroup
f 27/27/1 28/76/2 29/41/3 30/26/4
s 2
f 16/14/5 5/6/6 21/17/7 22/19/8
s 3
f 21/18/9 5/60/10 6/7/11 20/66/12
s 4
f 4/5/13 24/21/14 25/23/15 3/59/16
s 2
f 17/58/17 50/53/18 51/40/19 5/6/6 16/14/5
s 1
f 31/28/20 30/26/4 29/41/3 53/51/21 52/69/22
f 32/31/23 33/29/24 34/30/25 35/72/26
s 6
f 1/1/27 9/10/28 8/9/29 2/2/30
s 2
f 4/39/31 10/12/32 23/20/33 24/22/34
s 1
f 35/72/26 34/30/25 36/42/35 55/46/36 54/73/37
s off
f 26/25/38 19/15/39 13/13/40 7/8/41
s 6
f 9/10/28 15/54/42 14/74/43 8/9/29
s 2
f 10/12/32 16/14/5 22/19/8 23/20/33
f 11/64/44 17/58/17 16/14/5 10/12/32
s 8
f 12/70/45 18/57/46 17/58/47 11/64/48
s 1
f 36/42/35 34/30/25 30/26/4 31/28/20
f 37/32/49 57/45/50 56/77/51 28/76/2 27/27/1
s 2
f 22/19/8 21/17/7 40/35/52 41/36/53 15/37/54
f 23/20/33 22/19/8 15/37/54 9/11/55
f 24/22/34 23/20/33 9/11/55 1/3/56
s 4
f 25/23/15 24/21/14 1/1/57 2/2/58
s 1
f 38/33/59 39/34/60 33/29/24 32/31/23
f 39/34/60 37/32/49 27/27/1 33/29/24
s 3
f 20/16/12 6/67/11 29/41/61 28/76/62
s off
f 13/13/63 19/15/64 27/27/65 30/26/66
f 26/25/67 7/8/68 34/30/69 33/29/70
s 4
f 3/4/16 25/24/15 32/31/71 35/72/72
s off
f 7/8/73 13/13/74 30/26/75 34/30/76
s 8
f 18/57/46 12/70/45 36/42/77 31/28/78
s 6
f 2/2/30 8/9/29 39/34/79 38/33/80
s 4
f 25/24/15 2/2/58 38/33/81 32/31/71
s 6
f 8/9/29 14/74/43 37/32/82 39/34/79
s off
f 19/15/83 26/25/84 33/29/85 27/27/86
s 2
f 46/38/87 47/65/88 11/64/44 10/12/32 4/39/31
s 9
f 41/55/89 40/43/90 43/44/91 42/56/92
f 42/56/92 43/44/91 56/77/93 57/45/94
s 10
f 44/63/95 45/71/96 54/73/97 55/46/98
f 45/47/96 44/48/95 47/49/99 46/50/100
s 11
f 48/52/101 49/68/102 52/69/103 53/51/104
f 49/68/102 48/52/101 51/40/105 50/53/106
s 6
f 15/54/42 41/55/107 42/56/108 14/74/43
s 8
f 18/57/46 49/68/109 50/53/110 17/58/47
s 4
f 45/47/111 46/50/112 4/5/13 3/59/16
s 3
f 6/7/11 5/60/10 51/61/113 48/62/114
s 8
f 44/63/115 12/70/45 11/64/48 47/65/116
s 3
f 43/44/117 40/43/118 21/18/9 20/66/12
f 6/67/11 48/52/114 53/51/119 29/41/61
s 8
f 49/68/109 18/57/46 31/28/78 52/69/120
f 12/70/45 44/63/115 55/46/121 36/42/77
s 4
f 45/71/111 3/4/16 35/72/72 54/73/122
s 6
f 14/74/43 42/56/108 57/45/123 37/32/82
s 3
f 43/75/117 20/16/12 28/76/62 56/77/124
