# This file uses centimeters as units for non-parametric coordinates.

mtllib polesign.mtl
g default
v 9.293375 43.817828 -2.597431
v 7.851737 46.643560 -2.740836
v 5.606334 48.886076 -2.854643
v 2.776964 50.325862 -2.927712
v -0.359419 50.821973 -2.952890
v -3.495804 50.325862 -2.927712
v -6.325172 48.886071 -2.854643
v -8.570574 46.643560 -2.740836
v -10.012208 43.817828 -2.597431
v -10.508962 40.685472 -2.438465
v 9.790120 40.685472 -2.438465
v 9.293375 44.065326 2.279499
v 7.851737 46.891067 2.136094
v 5.606334 49.133584 2.022287
v 2.776964 50.573364 1.949219
v -0.359419 51.069475 1.924042
v -3.495804 50.573364 1.949219
v -6.325172 49.133579 2.022288
v -8.570574 46.891062 2.136094
v -10.012208 44.065326 2.279499
v -10.508962 40.932975 2.438465
v 9.790120 40.932975 2.438465
v -0.359419 40.685472 -2.438465
v -0.359419 40.932975 2.438465
vt 0.648603 0.107966
vt 0.626409 0.064408
vt 0.591842 0.029841
vt 0.548284 0.007647
vt 0.500000 -0.000000
vt 0.451716 0.007647
vt 0.408159 0.029841
vt 0.373591 0.064409
vt 0.351397 0.107966
vt 0.415625 0.234375
vt 0.634375 0.234375
vt 0.375000 0.312500
vt 0.387500 0.312500
vt 0.400000 0.312500
vt 0.412500 0.312500
vt 0.425000 0.312500
vt 0.437500 0.312500
vt 0.450000 0.312500
vt 0.462500 0.312500
vt 0.475000 0.312500
vt 0.625000 0.312500
vt 0.375000 0.687500
vt 0.387500 0.687500
vt 0.400000 0.687500
vt 0.412500 0.687500
vt 0.425000 0.687500
vt 0.437500 0.687500
vt 0.450000 0.687500
vt 0.462500 0.687500
vt 0.475000 0.687500
vt 0.415625 0.765625
vt 0.634375 0.765625
vt 0.625000 0.687500
vt 0.351397 0.892034
vt 0.373591 0.935591
vt 0.408159 0.970159
vt 0.451716 0.992353
vt 0.500000 1.000000
vt 0.548284 0.992353
vt 0.591841 0.970159
vt 0.626409 0.935591
vt 0.648603 0.892034
vt 0.500000 0.156250
vt 0.500000 0.843750
vn 0.951057 0.308619 -0.015662
vn 0.809017 0.587030 -0.029792
vn 0.809017 0.587030 -0.029792
vn 0.951057 0.308618 -0.015662
vn 0.587785 0.807977 -0.041005
vn 0.587785 0.807977 -0.041005
vn 0.309016 0.949834 -0.048204
vn 0.309016 0.949834 -0.048204
vn 0.000000 0.998715 -0.050684
vn 0.000000 0.998715 -0.050684
vn -0.309017 0.949834 -0.048204
vn -0.309017 0.949834 -0.048204
vn -0.587786 0.807977 -0.041005
vn -0.587786 0.807977 -0.041005
vn -0.809017 0.587030 -0.029792
vn -0.809017 0.587030 -0.029792
vn -0.951057 0.308619 -0.015662
vn -0.951057 0.308619 -0.015662
vn -0.987688 0.156233 -0.007929
vn -0.987688 0.156233 -0.007929
vn 0.987689 0.156230 -0.007928
vn 0.987689 0.156230 -0.007928
vn 0.000000 -0.050684 -0.998715
vn 0.000000 -0.050684 -0.998715
vn 0.000000 -0.050684 -0.998715
vn 0.000000 -0.050684 -0.998715
vn 0.000000 -0.050685 -0.998715
vn 0.000000 -0.050684 -0.998715
vn -0.000000 -0.050684 -0.998715
vn -0.000000 -0.050684 -0.998715
vn 0.000000 -0.050684 -0.998715
vn 0.000000 -0.050684 -0.998715
vn 0.000000 -0.050685 -0.998715
vn 0.000000 -0.050684 -0.998715
vn 0.000000 0.050684 0.998715
vn 0.000000 0.050684 0.998715
vn -0.000000 0.050684 0.998715
vn 0.000000 0.050684 0.998715
vn 0.000000 0.050684 0.998715
vn 0.000000 0.050684 0.998715
vn 0.000000 0.050684 0.998715
vn -0.000000 0.050684 0.998715
vn -0.000000 0.050684 0.998715
vn -0.000000 0.050684 0.998715
vn 0.000000 0.050684 0.998715
vn 0.000000 0.050685 0.998715
vn 0.000000 -0.998715 0.050684
vn 0.000000 -0.998715 0.050684
vn 0.000000 -0.998715 0.050684
vn 0.000000 -0.998715 0.050684
vn 0.000000 -0.998715 0.050684
vn 0.000000 -0.998715 0.050684
vn 0.000000 -0.998715 0.050684
vn 0.000000 -0.998715 0.050684
s 1
g polesign
usemtl initialShadingGroup
f 1/12/1 2/13/2 13/23/3 12/22/4
f 2/13/2 3/14/5 14/24/6 13/23/3
f 3/14/5 4/15/7 15/25/8 14/24/6
f 4/15/7 5/16/9 16/26/10 15/25/8
f 5/16/9 6/17/11 17/27/12 16/26/10
f 6/17/11 7/18/13 18/28/14 17/27/12
f 7/18/13 8/19/15 19/29/16 18/28/14
f 8/19/15 9/20/17 20/30/18 19/29/16
f 9/20/17 10/10/19 21/31/20 20/30/18
f 11/11/21 1/21/1 12/33/4 22/32/22
s 2
f 2/2/23 1/1/24 23/43/25
f 3/3/26 2/2/23 23/43/25
f 4/4/27 3/3/26 23/43/25
f 5/5/28 4/4/27 23/43/25
f 6/6/29 5/5/28 23/43/25
f 7/7/30 6/6/29 23/43/25
f 8/8/31 7/7/30 23/43/25
f 9/9/32 8/8/31 23/43/25
f 10/10/33 9/9/32 23/43/25
f 1/1/24 11/11/34 23/43/25
s 3
f 12/42/35 13/41/36 24/44/37
f 13/41/36 14/40/38 24/44/37
f 14/40/38 15/39/39 24/44/37
f 15/39/39 16/38/40 24/44/37
f 16/38/40 17/37/41 24/44/37
f 17/37/41 18/36/42 24/44/37
f 18/36/42 19/35/43 24/44/37
f 19/35/43 20/34/44 24/44/37
f 20/34/44 21/31/45 24/44/37
f 22/32/46 12/42/35 24/44/37
s off
f 10/10/47 23/43/48 24/44/49 21/31/50
f 23/43/51 11/11/52 22/32/53 24/44/54
g default
v 1.780311 -2.278247 -0.578458
v 1.514423 -2.278247 -1.100293
v 1.100293 -2.278247 -1.514423
v 0.578458 -2.278247 -1.780311
v 0.000000 -2.278247 -1.871929
v -0.578458 -2.278247 -1.780310
v -1.100292 -2.278247 -1.514422
v -1.514422 -2.278247 -1.100292
v -1.780310 -2.278247 -0.578458
v -1.871929 -2.278247 0.000000
v -1.780310 -2.278247 0.578458
v -1.514422 -2.278247 1.100292
v -1.100292 -2.278247 1.514422
v -0.578458 -2.278247 1.780310
v -0.000000 -2.278247 1.871929
v 0.578458 -2.278247 1.780310
v 1.100292 -2.278247 1.514422
v 1.514422 -2.278247 1.100292
v 1.780310 -2.278247 0.578458
v 1.871928 -2.278247 0.000000
v 1.780311 41.325175 -0.578458
v 1.514423 41.325175 -1.100293
v 1.100293 41.325175 -1.514423
v 0.578458 41.325175 -1.780311
v 0.000000 41.325175 -1.871929
v -0.578458 41.325175 -1.780310
v -1.100292 41.325175 -1.514422
v -1.514422 41.325175 -1.100292
v -1.780310 41.325175 -0.578458
v -1.871929 41.325175 0.000000
v -1.780310 41.325175 0.578458
v -1.514422 41.325175 1.100292
v -1.100292 41.325175 1.514422
v -0.578458 41.325175 1.780310
v -0.000000 41.325175 1.871929
v 0.578458 41.325175 1.780310
v 1.100292 41.325175 1.514422
v 1.514422 41.325175 1.100292
v 1.780310 41.325175 0.578458
v 1.871928 41.325175 0.000000
v 0.000000 -2.278247 0.000000
v 0.000000 41.325175 0.000000
vt 0.648603 0.107966
vt 0.626409 0.064408
vt 0.591842 0.029841
vt 0.548284 0.007647
vt 0.500000 -0.000000
vt 0.451716 0.007647
vt 0.408159 0.029841
vt 0.373591 0.064409
vt 0.351397 0.107966
vt 0.343750 0.156250
vt 0.351397 0.204534
vt 0.373591 0.248091
vt 0.408159 0.282659
vt 0.451716 0.304853
vt 0.500000 0.312500
vt 0.548284 0.304853
vt 0.591841 0.282659
vt 0.626409 0.248091
vt 0.648603 0.204534
vt 0.656250 0.156250
vt 0.375000 0.312500
vt 0.387500 0.312500
vt 0.400000 0.312500
vt 0.412500 0.312500
vt 0.425000 0.312500
vt 0.437500 0.312500
vt 0.450000 0.312500
vt 0.462500 0.312500
vt 0.475000 0.312500
vt 0.487500 0.312500
vt 0.500000 0.312500
vt 0.512500 0.312500
vt 0.525000 0.312500
vt 0.537500 0.312500
vt 0.550000 0.312500
vt 0.562500 0.312500
vt 0.575000 0.312500
vt 0.587500 0.312500
vt 0.600000 0.312500
vt 0.612500 0.312500
vt 0.625000 0.312500
vt 0.375000 0.687500
vt 0.387500 0.687500
vt 0.400000 0.687500
vt 0.412500 0.687500
vt 0.425000 0.687500
vt 0.437500 0.687500
vt 0.450000 0.687500
vt 0.462500 0.687500
vt 0.475000 0.687500
vt 0.487500 0.687500
vt 0.500000 0.687500
vt 0.512500 0.687500
vt 0.525000 0.687500
vt 0.537500 0.687500
vt 0.550000 0.687500
vt 0.562500 0.687500
vt 0.575000 0.687500
vt 0.587500 0.687500
vt 0.600000 0.687500
vt 0.612500 0.687500
vt 0.625000 0.687500
vt 0.648603 0.795466
vt 0.626409 0.751908
vt 0.591842 0.717341
vt 0.548284 0.695147
vt 0.500000 0.687500
vt 0.451716 0.695147
vt 0.408159 0.717341
vt 0.373591 0.751909
vt 0.351397 0.795466
vt 0.343750 0.843750
vt 0.351397 0.892034
vt 0.373591 0.935591
vt 0.408159 0.970159
vt 0.451716 0.992353
vt 0.500000 1.000000
vt 0.548284 0.992353
vt 0.591841 0.970159
vt 0.626409 0.935591
vt 0.648603 0.892034
vt 0.656250 0.843750
vt 0.500000 0.156250
vt 0.500000 0.843750
vn 0.951057 0.000000 -0.309016
vn 0.809017 0.000000 -0.587785
vn 0.809017 0.000000 -0.587785
vn 0.951057 0.000000 -0.309016
vn 0.587785 0.000000 -0.809017
vn 0.587785 0.000000 -0.809017
vn 0.309017 0.000000 -0.951057
vn 0.309017 0.000000 -0.951057
vn -0.000000 0.000000 -1.000000
vn -0.000000 0.000000 -1.000000
vn -0.309017 0.000000 -0.951056
vn -0.309017 0.000000 -0.951056
vn -0.587785 0.000000 -0.809017
vn -0.587785 0.000000 -0.809017
vn -0.809017 0.000000 -0.587785
vn -0.809017 0.000000 -0.587785
vn -0.951057 0.000000 -0.309017
vn -0.951057 0.000000 -0.309017
vn -1.000000 0.000000 0.000000
vn -1.000000 0.000000 0.000000
vn -0.951056 0.000000 0.309017
vn -0.951056 0.000000 0.309017
vn -0.809017 0.000000 0.587785
vn -0.809017 0.000000 0.587785
vn -0.587785 0.000000 0.809017
vn -0.587785 0.000000 0.809017
vn -0.309017 0.000000 0.951057
vn -0.309017 0.000000 0.951057
vn 0.000000 0.000000 1.000000
vn 0.000000 0.000000 1.000000
vn 0.309017 0.000000 0.951056
vn 0.309017 0.000000 0.951056
vn 0.587785 0.000000 0.809017
vn 0.587785 0.000000 0.809017
vn 0.809017 0.000000 0.587785
vn 0.809017 0.000000 0.587785
vn 0.951056 0.000000 0.309017
vn 0.951056 0.000000 0.309017
vn 1.000000 0.000000 0.000001
vn 1.000000 0.000000 0.000001
vn 0.000000 -1.000000 0.000000
vn 0.000000 -1.000000 0.000000
vn 0.000000 -1.000000 0.000000
vn 0.000000 -1.000000 0.000000
vn 0.000000 -1.000000 0.000000
vn 0.000000 -1.000000 0.000000
vn 0.000000 -1.000000 0.000000
vn 0.000000 -1.000000 0.000000
vn 0.000000 -1.000000 0.000000
vn 0.000000 -1.000000 0.000000
vn 0.000000 -1.000000 0.000000
vn 0.000000 -1.000000 0.000000
vn 0.000000 -1.000000 0.000000
vn 0.000000 -1.000000 0.000000
vn 0.000000 -1.000000 0.000000
vn 0.000000 -1.000000 0.000000
vn 0.000000 -1.000000 0.000000
vn 0.000000 -1.000000 0.000000
vn 0.000000 -1.000000 0.000000
vn 0.000000 -1.000000 0.000000
vn 0.000000 -1.000000 0.000000
vn 0.000000 1.000000 0.000000
vn 0.000000 1.000000 0.000000
vn 0.000000 1.000000 0.000000
vn 0.000000 1.000000 0.000000
vn 0.000000 1.000000 0.000000
vn 0.000000 1.000000 0.000000
vn 0.000000 1.000000 0.000000
vn 0.000000 1.000000 0.000000
vn 0.000000 1.000000 0.000000
vn 0.000000 1.000000 0.000000
vn 0.000000 1.000000 0.000000
vn 0.000000 1.000000 0.000000
vn 0.000000 1.000000 0.000000
vn 0.000000 1.000000 0.000000
vn 0.000000 1.000000 0.000000
vn 0.000000 1.000000 0.000000
vn 0.000000 1.000000 0.000000
vn 0.000000 1.000000 0.000000
vn 0.000000 1.000000 0.000000
vn 0.000000 1.000000 0.000000
vn 0.000000 1.000000 0.000000
s 1
g pole
usemtl initialShadingGroup
f 25/65/55 26/66/56 46/87/57 45/86/58
f 26/66/56 27/67/59 47/88/60 46/87/57
f 27/67/59 28/68/61 48/89/62 47/88/60
f 28/68/61 29/69/63 49/90/64 48/89/62
f 29/69/63 30/70/65 50/91/66 49/90/64
f 30/70/65 31/71/67 51/92/68 50/91/66
f 31/71/67 32/72/69 52/93/70 51/92/68
f 32/72/69 33/73/71 53/94/72 52/93/70
f 33/73/71 34/74/73 54/95/74 53/94/72
f 34/74/73 35/75/75 55/96/76 54/95/74
f 35/75/75 36/76/77 56/97/78 55/96/76
f 36/76/77 37/77/79 57/98/80 56/97/78
f 37/77/79 38/78/81 58/99/82 57/98/80
f 38/78/81 39/79/83 59/100/84 58/99/82
f 39/79/83 40/80/85 60/101/86 59/100/84
f 40/80/85 41/81/87 61/102/88 60/101/86
f 41/81/87 42/82/89 62/103/90 61/102/88
f 42/82/89 43/83/91 63/104/92 62/103/90
f 43/83/91 44/84/93 64/105/94 63/104/92
f 44/84/93 25/85/55 45/106/58 64/105/94
s 2
f 26/46/95 25/45/96 65/127/97
f 27/47/98 26/46/95 65/127/97
f 28/48/99 27/47/98 65/127/97
f 29/49/100 28/48/99 65/127/97
f 30/50/101 29/49/100 65/127/97
f 31/51/102 30/50/101 65/127/97
f 32/52/103 31/51/102 65/127/97
f 33/53/104 32/52/103 65/127/97
f 34/54/105 33/53/104 65/127/97
f 35/55/106 34/54/105 65/127/97
f 36/56/107 35/55/106 65/127/97
f 37/57/108 36/56/107 65/127/97
f 38/58/109 37/57/108 65/127/97
f 39/59/110 38/58/109 65/127/97
f 40/60/111 39/59/110 65/127/97
f 41/61/112 40/60/111 65/127/97
f 42/62/113 41/61/112 65/127/97
f 43/63/114 42/62/113 65/127/97
f 44/64/115 43/63/114 65/127/97
f 25/45/96 44/64/115 65/127/97
s 3
f 45/125/116 46/124/117 66/128/118
f 46/124/117 47/123/119 66/128/118
f 47/123/119 48/122/120 66/128/118
f 48/122/120 49/121/121 66/128/118
f 49/121/121 50/120/122 66/128/118
f 50/120/122 51/119/123 66/128/118
f 51/119/123 52/118/124 66/128/118
f 52/118/124 53/117/125 66/128/118
f 53/117/125 54/116/126 66/128/118
f 54/116/126 55/115/127 66/128/118
f 55/115/127 56/114/128 66/128/118
f 56/114/128 57/113/129 66/128/118
f 57/113/129 58/112/130 66/128/118
f 58/112/130 59/111/131 66/128/118
f 59/111/131 60/110/132 66/128/118
f 60/110/132 61/109/133 66/128/118
f 61/109/133 62/108/134 66/128/118
f 62/108/134 63/107/135 66/128/118
f 63/107/135 64/126/136 66/128/118
f 64/126/136 45/125/116 66/128/118
